<?xml version="1.0" encoding="UTF-8"?>
<svg width="471px" height="143px" viewBox="0 0 471 143" version="1.1" xmlns="http://www.w3.org/2000/svg" xmlns:xlink="http://www.w3.org/1999/xlink">
    <!-- Generator: Sketch 51.3 (57544) - http://www.bohemiancoding.com/sketch -->
    <title>JesseLogoK Copy</title>
    <desc>Created with Sketch.</desc>
    <defs>
        <polygon id="path-1" points="0.0101618123 0.0532249706 470.994185 0.0532249706 470.994185 143 0.0101618123 143"></polygon>
    </defs>
    <g id="Page-1" stroke="none" stroke-width="1" fill="none" fill-rule="evenodd">
        <g id="JesseLogoK-Copy">
            <g id="Group-3">
                <mask id="mask-2" fill="white">
                    <use xlink:href="#path-1"></use>
                </mask>
                <g id="Clip-2"></g>
                <path d="M253.315351,11.9461425 C252.078997,13.645636 250.62247,15.9299305 249.172718,18.6871861 C248.417357,20.124934 247.551909,21.8069105 246.58315,23.7245253 C249.397972,19.9568375 251.687767,15.966649 253.315351,11.9461425 Z M224.476127,47.2915654 C224.26781,48.2331084 224.022233,49.1945265 223.737702,50.1732933 C224.186516,49.1424806 224.64041,48.1079623 225.094304,47.0774865 C224.891068,47.1489022 224.686138,47.220318 224.476127,47.2915654 Z M134.189441,41.996523 C132.933949,41.996523 131.441348,42.748073 130.197035,44.0072815 C128.676827,45.5452473 127.094633,47.3996996 126.575195,50.3587385 C131.123114,47.7210707 134.880106,45.1315748 135.050994,42.2237397 C135.051671,42.2131284 135.051671,42.2045383 135.051502,42.1979694 C134.986466,42.1422179 134.721073,41.996523 134.189441,41.996523 Z M197.936861,10.3808905 C194.62411,11.1651166 189.844671,12.3973757 185.083862,13.979808 C171.438242,18.5157208 169.062579,22.1885807 168.674737,23.5572709 C165.617894,34.3420648 167.065953,42.2668587 172.977756,47.1120153 C174.913581,48.683331 177.350723,49.9410236 180.21466,50.8455112 L180.487335,50.1099623 L180.439914,50.0927821 L181.068252,48.3828457 C182.363883,44.8556808 183.57822,41.6621826 184.679083,38.8911154 C190.786332,23.4993298 195.328662,14.8101849 197.936861,10.3808905 Z M301.599202,42.5983357 C301.316365,42.5983357 300.229051,42.7295453 298.083215,44.4189329 C294.243743,47.4413027 292.670356,51.0008068 293.320712,55.2387609 C293.717023,54.839742 294.113333,54.4393757 294.506257,54.038841 C297.56835,50.4225748 299.697249,47.6196737 300.662621,45.9302862 C301.748242,44.0310306 301.732999,42.9166749 301.646624,42.5996832 C301.633074,42.598841 301.617832,42.5983357 301.599202,42.5983357 Z M106.119636,45.1090047 C105.573608,45.1090047 104.227507,45.6415913 102.644635,47.6373592 C99.7895049,51.2372874 98.3194293,53.4250695 99.8995912,58.063053 C104.611285,51.583755 106.401288,47.8089929 106.498841,46.4291861 C106.554393,45.6451284 106.399933,45.2555418 106.300009,45.148755 C106.269184,45.1159105 106.184841,45.1090047 106.119636,45.1090047 Z M158.454155,45.0759918 C157.951484,45.0891296 157.347026,45.1659352 156.654837,45.3047244 C154.457006,45.7453463 151.951612,48.1499022 149.599999,52.0755807 C148.145505,54.5033804 146.796186,57.4364806 145.70921,60.4925371 C148.781804,58.6714346 152.024946,56.3605277 154.28036,53.7243757 C156.759504,50.8273204 158.464148,48.3323157 159.164297,46.59004 C158.911098,46.0988881 158.673989,45.5934193 158.454155,45.0759918 Z M295.077012,60.4669352 C295.146451,60.6094299 295.219277,60.7514193 295.292104,60.8925665 C298.349115,58.6774982 301.064013,57.0568316 302.539169,56.2197173 C304.574919,55.065106 306.473484,54.1587656 308.192524,53.5195607 C309.354358,51.2238127 310.639827,48.8645654 312.016753,46.496391 C312.760259,45.2161284 313.51562,43.9596148 314.274369,42.7349352 C313.317465,42.9523828 312.406289,43.1526502 311.554391,43.3249576 C310.959924,43.4453875 310.395944,43.5065289 309.881079,43.5065289 C309.100313,43.5065289 308.458425,43.3692556 307.933398,43.1571979 C307.801294,43.9121166 307.542168,44.6594558 307.152632,45.3779929 C305.191402,49.0006596 299.605793,55.5640059 295.077012,60.4669352 Z M82.2725728,46.7428092 C82.1443646,46.7428092 79.0577141,46.8775559 72.8308943,58.589576 C71.8211489,60.4888316 70.9287724,62.3094287 70.1591845,64.038735 C75.1286494,60.6299788 78.2700043,57.1487962 78.3096354,57.1043298 L79.1772848,56.1343216 C80.5452341,54.1574181 81.4347314,52.2372768 82.341165,49.9356337 C82.9928759,48.2809435 82.5786127,46.8874935 82.327616,46.7476938 C82.3271079,46.7476938 82.3106796,46.7428092 82.2725728,46.7428092 Z M65.7753786,10.0052839 C62.4004714,10.837682 57.3414132,12.1747067 52.1485577,13.8728528 C36.7810183,18.8984016 32.9747422,22.8198693 32.0737282,24.7100294 C26.8666462,35.6324335 26.0592902,47.058285 29.8586224,56.0580212 C32.3460647,61.9494865 36.5379817,66.2669411 42.0450065,68.6379788 C43.0027573,66.0195124 43.9266354,63.3404099 44.8254477,60.7340707 C46.1232805,56.9709305 47.4653172,53.0794441 48.9270939,49.3107456 C57.9804218,25.9685642 63.1455016,14.9914193 65.7753786,10.0052839 Z M430.405254,53.0381779 C429.65836,53.0381779 427.421068,54.1511861 425.390399,56.8326466 C423.901694,58.7972544 421.628835,62.8674488 423.124315,68.0535147 C423.405458,69.0255442 423.905081,69.7491343 424.66891,70.2645406 C424.839968,69.9647291 425.009331,69.6620542 425.175307,69.3580318 C431.258846,58.2025159 430.865922,53.6910259 430.405254,53.0381779 Z M327.19342,39.9187279 C325.030647,42.4137326 323.287896,44.7687691 322.014283,46.9258963 C318.965739,52.0840024 316.211888,57.9574452 314.460669,63.0404299 C312.750097,68.0024794 312.54178,70.564689 312.651866,71.5725948 C314.770604,70.7112261 317.900442,67.6608963 321.162384,63.2636042 C321.355458,62.6789717 321.558695,62.0906337 321.770399,61.5107173 C325.479461,51.2844488 332.731607,44.4199435 333.038155,44.1327644 L333.730852,43.4836219 L336.78109,44.1142367 C338.03438,42.5558905 340.791618,39.8249105 345.115469,39.1580824 C343.914682,39.0432108 341.611338,38.8671979 338.76603,38.8671979 C336.611726,38.8671979 334.513312,38.9670789 332.530065,39.1638092 C330.900787,39.3253369 329.149569,39.572934 327.19342,39.9187279 Z M200.731359,71.7398492 C200.924434,71.8884075 201.039601,71.8884075 201.076861,71.8884075 C201.163236,71.8884075 201.273323,71.8584264 201.395264,71.8020012 C202.336926,71.3618846 204.518328,69.0617574 207.560097,64.0272815 C210.281769,59.5213498 212.962794,54.0329458 214.913862,48.9691625 C217.005502,43.544258 216.458457,41.3679293 216.040129,40.9374134 C216.001176,40.914338 215.924962,40.8831779 215.770841,40.8831779 C215.245814,40.8831779 214.2652,41.2540683 213.083042,42.2948186 C208.975976,45.911927 205.050129,54.2497197 205.011176,54.3335995 L204.274444,55.9086207 L202.042233,54.9987432 C201.085329,57.0004064 200.341823,59.069106 199.826958,61.1677868 C198.458501,66.7469764 199.527184,70.6943828 200.731359,71.7398492 Z M328.524617,73.0762002 C328.529698,73.0762002 328.548328,73.0785583 328.578813,73.0785583 C328.699061,73.0785583 331.58671,72.9636867 338.22068,62.9678351 C343.868954,54.458914 345.108695,50.028609 345.151036,48.4741366 C344.532859,48.8035925 343.428608,49.6287479 341.977163,51.4220589 C336.550755,58.127563 335.504088,60.8654488 335.404164,61.1536384 L335.11794,62.6567385 L333.576731,62.5135701 L330.809331,62.4300271 C329.943883,64.0705689 328.258716,67.6893616 328.152017,71.1525218 C328.113064,72.4649552 328.433161,73.003437 328.522923,73.0763687 C328.522923,73.0762002 328.522923,73.0762002 328.524617,73.0762002 Z M185.720669,72.2875948 L185.815512,72.3099965 C186.338846,72.4336266 186.855405,72.5685418 187.348252,72.7105312 C187.917314,72.8739117 188.537184,73.056662 189.226494,73.2640035 C188.655739,70.8151496 188.537184,68.1990412 188.897929,65.7613039 C189.177379,63.8724912 189.751521,61.691278 190.610194,59.2471402 C189.792168,59.4251743 188.933495,59.5646372 188.044337,59.6633392 C186.855405,63.2371602 185.673247,66.8153604 184.526656,70.2866054 L183.96945,71.9717821 C184.426731,72.0509458 184.882319,72.1400471 185.337907,72.2392544 L185.720669,72.2875948 Z M173.797476,58.1492909 C171.443323,62.7385972 167.495458,69.9103251 163.241724,75.4211307 C166.27892,73.7844629 169.493948,72.6322097 172.806699,72.0054688 L173.047195,71.2908057 C174.562999,66.8087915 175.946699,62.7788528 177.254186,59.0392933 C176.058479,58.7908539 174.90342,58.4937373 173.797476,58.1492909 Z M287.199914,78.5573616 C287.257497,78.5814476 287.406537,78.6200188 287.669051,78.6200188 C288.019633,78.6200188 288.649666,78.5502874 289.652298,78.2188104 C289.901262,78.1364464 290.212891,77.9991731 290.290798,77.8120436 C290.577023,77.121298 289.911424,75.3820542 289.086624,73.6124923 C287.276127,76.4002344 287.025469,78.1517739 287.199914,78.5573616 Z M143.468023,69.3477574 C143.351501,70.2855948 143.30628,71.1078869 143.337105,71.7639352 C143.505113,75.361 144.266402,79.6484735 146.93862,79.6479682 C148.373129,79.6477998 151.107673,78.7097939 155.987714,74.2415913 C163.3093,67.5379399 167.762206,61.229265 170.311974,56.8331519 C168.485558,56.0095124 166.816649,55.0243451 165.332347,53.8921355 C165.272223,53.8466584 165.20651,53.7957915 165.140967,53.7449246 L165.100319,53.7132591 C165.040703,53.6667715 164.981257,53.6204523 164.922318,53.5732909 C164.907245,53.5613322 164.892172,53.5493734 164.877268,53.537583 C163.279153,56.6497279 160.993592,59.4330907 158.27734,61.5396879 C153.857798,64.967477 148.880881,67.5909965 143.468023,69.3477574 Z M207.241694,78.8499305 C208.576278,79.2789305 209.961672,79.723258 211.392794,80.1808916 L211.565545,79.7365642 C211.609579,79.6223663 214.226246,72.8821649 217.937001,63.8869764 C216.847994,65.8955453 215.647206,67.9344323 214.338026,69.9893204 C211.944919,73.749934 209.561974,76.725311 207.241694,78.8499305 Z M415.457228,69.9984158 C414.407174,72.3628846 413.661974,74.910609 413.695847,77.342788 C413.706009,78.2358221 413.841499,80.3122697 414.830583,80.3122697 C415.623204,80.3122697 417.150863,79.6051861 419.107012,77.7113204 C416.920529,75.4969258 415.90096,72.6210931 415.457228,69.9984158 Z M122.422232,76.3150071 C119.26953,78.1271826 117.232425,80.0277856 116.217429,82.0969906 C115.751002,83.047629 115.788093,84.1173498 116.316507,84.958338 C116.7494,85.6475677 117.423467,86.042881 118.165787,86.042881 C119.694802,86.042881 121.394026,84.5020518 122.82735,81.8158751 C123.728702,80.1268245 123.446373,78.4780294 122.422232,76.3150071 Z M46.341082,84.8601413 C50.328069,85.3534829 54.5879008,86.1905972 59.1520787,87.2335371 C58.7376462,86.8055477 58.3479407,86.3393239 57.9844865,85.8357079 C56.8910755,84.320649 56.2839072,82.0459552 56.1717886,79.0572721 C55.021302,79.2257055 53.8198371,79.3653369 52.5799266,79.4744817 C51.9426117,79.5304016 51.2697303,79.5588669 50.5795739,79.5588669 C49.8882319,79.5588669 49.1696224,79.5305701 48.4311974,79.4743133 C47.7361294,81.2789093 47.0371661,83.0803051 46.341082,84.8601413 Z M96.8490151,74.7891684 C93.4920604,79.1867974 91.5904466,83.5101472 92.0196138,85.9605171 C92.1442654,86.6716431 92.4548781,87.1341614 93.0269881,87.4602485 C93.6063808,87.7903781 94.1778134,87.9578009 94.7251963,87.9578009 C96.3114552,87.9578009 97.4956451,86.6000589 98.0604725,85.7909046 C99.0868155,84.3201437 99.6985566,82.3653051 99.696863,80.5613828 C99.6956775,79.3011637 98.3319622,77.0180483 96.8490151,74.7891684 Z M169.259888,82.6174499 C162.216736,85.7135936 159.314014,91.9961614 158.122033,96.8773628 C160.533431,96.2536537 162.92332,95.5416855 165.261384,94.7502167 L165.676833,93.4854499 C166.799713,90.0672615 168.002533,86.4107397 169.259888,82.6174499 Z M71.9859396,90.3857691 C85.2367735,93.7443322 100.255763,97.5507597 117.634663,99.4808386 C122.161751,99.9836125 126.690871,100.238621 131.096355,100.238621 C135.758086,100.238621 140.40051,99.9532945 144.917097,99.390053 C144.996698,98.9671166 145.08392,98.547212 145.178086,98.1332026 C145.994757,94.5411908 147.674166,90.8528351 150.000036,87.4341413 C148.200717,88.3753475 146.367526,88.9486949 144.5279,88.9486949 C140.802071,88.9486949 137.594834,86.6445253 134.994934,82.1001908 C134.584058,81.382159 134.226532,80.6302721 133.922355,79.8458775 C133.740797,80.6405465 133.460839,81.4562697 133.063343,82.2975948 C130.333033,88.0768834 124.305385,92.2717185 118.730954,92.2717185 C117.445484,92.2717185 116.232503,92.0428174 115.125373,91.5915842 C112.586953,90.5565607 110.919569,88.7624075 110.303932,86.4034971 C109.508093,83.3540094 110.630634,79.6383675 113.383808,76.2092309 C114.646413,74.6367362 116.667428,73.1939352 119.823687,71.632894 C118.800223,69.8463204 117.720869,67.8569529 116.819009,65.5874806 C116.236229,64.1200883 115.761164,62.7018787 115.398387,61.3476737 C112.945834,62.5890283 110.156078,64.025934 108.260561,65.0936337 C106.89312,65.8640483 106.191955,66.1935041 105.763804,66.3540212 C105.583601,66.4784935 105.405769,66.602629 105.230817,66.7264276 C108.748159,71.2075995 112.329012,76.3491991 108.744771,84.05604 C107.246243,87.2783404 105.112093,89.9399258 102.572995,91.752775 C100.180396,93.4611955 97.5466235,94.3641673 94.9563776,94.3641673 C91.6534498,94.3641673 88.8152557,92.8595512 87.1697195,90.2356949 C85.6063247,87.7432167 85.5334984,84.5817208 86.8608004,80.9979623 C81.4286343,85.9992568 76.2076645,89.1370035 71.474123,90.2560754 C71.6446721,90.2991943 71.8145437,90.3423133 71.9859396,90.3857691 Z M157.583796,110.456299 C157.803461,112.56037 158.097306,114.147181 158.37845,115.2612 C158.808294,114.110631 159.407333,112.397158 160.208254,110.028478 C159.342975,110.176531 158.467366,110.319194 157.583796,110.456299 Z M31.465205,95.4573004 C26.5043776,97.1714476 22.5985156,100.569761 19.3469051,105.94582 C15.4427368,112.400527 14.7502093,118.328205 14.8569083,122.164108 C14.955986,125.73574 15.7475912,128.075954 16.3567918,129.214901 C18.4111715,125.364512 24.3863172,112.516914 31.465205,95.4573004 Z M11.8991435,143 C9.23895038,143 6.8053657,141.774984 4.86124164,139.456665 C2.9398123,137.165297 1.50344013,133.835704 0.591925566,129.56019 C-1.09662891,121.64028 0.866802589,112.396653 5.97870227,104.199502 C11.2359159,95.7694075 19.1277487,89.331881 28.200384,86.0730306 C30.5540291,85.2278316 33.0919417,84.70653 35.9279342,84.4884087 C36.8706117,82.1239399 37.8009256,79.7587974 38.7054962,77.4264994 C34.3118673,75.9395689 30.1605976,73.7098469 26.6017616,70.9150306 C22.0890701,67.3708539 18.649466,63.0751272 16.3781316,58.146596 C11.7412967,48.0852238 12.4175653,36.0233675 18.333603,23.2650389 C20.0011564,19.6689847 24.1222794,16.4401154 30.9325566,13.3933227 C36.0730787,11.0935324 42.7371953,8.92478327 50.7399612,6.94754299 C64.2865038,3.60026502 77.2226602,1.92249941 77.3518846,1.9058245 L80.7386472,1.47143463 L79.2255534,4.51603769 C79.0978533,4.7728987 66.3518921,30.5046455 56.6541359,57.4324382 C55.1264768,61.6739293 53.4977077,66.0981708 51.800685,70.6160612 C53.496014,70.5956808 55.2377487,70.3928869 56.9959115,70.0115536 C58.0473204,64.552457 59.9706127,58.9331802 62.4649989,54.0610742 C65.5933128,47.9503086 69.436849,43.4031107 73.5794811,40.9109694 C76.7447163,39.0069976 79.5647886,38.0415371 81.961452,38.0415371 C84.5242611,38.0415371 86.577794,39.116311 87.9000151,41.149808 C90.2158921,44.710828 89.8749633,51.0745807 87.0315189,57.362033 C82.9490108,66.3897291 71.3935059,73.7337644 66.7161931,76.4199411 C66.7172093,78.1007385 67.0808328,79.368874 67.7831834,80.1189081 C68.4144013,80.7929788 69.4185577,81.1345618 70.7677077,81.1343934 C72.3827584,81.134225 74.4110561,80.6567161 76.7962028,79.7153416 C81.2235351,77.9676761 86.3566052,73.9053981 92.0660194,67.6336101 C89.5951748,63.6341578 87.4352816,59.1000978 88.2390809,54.7794429 C89.2913366,49.1237845 93.3096559,44.7591684 95.6113064,42.6608245 C98.9088145,39.6546243 102.661064,37.6047892 104.948149,37.5599859 C104.997434,37.5589753 105.046549,37.5586384 105.095834,37.5586384 C107.482844,37.5586384 109.934381,38.7120707 111.493711,40.568881 C112.828973,42.1590612 113.37534,44.0729706 113.032209,45.9577409 C112.500916,48.8741661 107.594624,56.5451307 103.563433,62.0459988 C107.267074,59.6567703 111.304362,57.6904782 114.547674,56.2761425 C114.229609,50.6004405 116.353598,45.9611095 121.160982,41.7666113 C125.942961,37.5941779 129.919448,35.5660707 133.317727,35.5660707 C135.638854,35.5660707 137.684258,36.5509011 139.232749,38.4139435 C140.376461,39.7900448 140.811386,41.4679788 140.490104,43.2661743 C139.73254,47.5053074 135.125683,51.1832203 132.79541,52.5357409 C131.674393,53.1863993 129.560736,54.2684158 126.722033,55.6901625 C126.974724,57.0401567 127.375438,58.5014853 127.918926,60.0514099 C128.87295,62.7732945 129.911996,65.080159 130.860262,67.130331 C131.70166,66.8557845 132.501225,66.6150931 133.250659,66.4111201 C134.975627,57.6667291 139.959488,48.6178104 144.160042,42.9368869 C147.085967,38.979543 151.740923,36.1441343 156.404348,35.3760777 C156.244977,31.465053 156.720889,27.1038057 157.824292,22.3817739 C159.145667,16.727126 167.844009,11.7689505 184.41657,7.22411072 C196.172093,4.00029446 207.74301,2.20142521 207.858177,2.18357126 L211.690874,1.59321201 L211.645146,1.6681649 L211.753538,1.65182686 L209.775372,4.96238634 C209.702546,5.08315312 202.404671,17.479013 192.007443,47.8953993 C191.736462,48.6888893 191.462093,49.4946749 191.182643,50.3210094 C191.778803,50.0025018 192.317379,49.631106 192.791597,49.2095171 L192.861036,49.2593734 C192.90507,49.2194547 192.950798,49.1791991 192.993139,49.1381013 C194.705405,47.5359623 196.224595,45.9626254 197.513452,44.4593569 C200.031888,39.91098 202.099817,36.705523 202.187886,36.5697656 L203.021154,35.2800707 L204.894315,36.0712026 L206.328824,36.5950306 C210.30548,31.9710271 213.252406,30.7677385 217.401812,30.1591885 C217.723603,30.1121955 218.045394,30.088278 218.358716,30.088278 C219.766127,30.088278 221.075307,30.5693239 222.147379,31.4798751 C224.476127,33.4057432 225.553279,37.174947 225.243344,42.077371 C226.159601,41.5702179 227.043679,41.0519482 227.878641,40.53351 C228.396893,39.3977633 228.904984,38.2911555 229.396138,37.2374358 C238.216591,18.2708186 245.077508,4.56168316 253.052837,0.892191991 C254.262093,0.335519435 255.383279,0.0532249706 256.382524,0.0532249706 C258.055836,0.0532249706 259.417519,0.831050648 260.215221,2.2431967 C262.440658,6.18420259 259.928997,14.8042898 253.49657,25.3017362 C250.276969,30.5541649 245.32986,35.3587291 238.783959,39.5884299 C238.765329,39.6286855 238.745005,39.6684358 238.726375,39.708523 C241.893474,37.4718952 245.883679,35.1421237 249.895901,34.0905936 C250.896839,33.8278375 251.772449,33.7003333 252.571845,33.7003333 C254.915836,33.7003333 256.064121,34.8258057 256.612859,35.7700436 C257.57315,37.4215336 257.468145,39.8596078 256.294455,43.2233922 C255.435782,45.6794888 254.02329,48.6147786 252.095933,51.9477397 L251.455739,53.0514841 C247.214876,60.3684016 243.207735,67.2824264 244.013905,71.2837314 C244.173107,71.2385913 244.403441,71.1531955 244.721845,70.9926784 C246.054736,67.7233852 247.536667,64.245066 249.132071,60.6431166 C254.683808,48.1084676 261.498997,36.3529918 261.566742,36.2355936 L261.956278,35.5662391 L273.820194,32.6449293 L272.785383,35.3029776 C274.629752,34.4936549 276.985599,33.8461967 279.912201,33.7109446 C280.098501,33.7023545 280.283107,33.6978068 280.460939,33.6978068 C283.541661,33.6978068 284.943991,35.0387055 285.577411,36.1636726 C287.970518,40.4124064 283.41972,48.451735 277.21932,58.5198445 C270.287271,69.7804629 270.707292,72.456702 270.837702,72.8444358 C270.893592,72.8585842 270.998598,72.8771119 271.173042,72.8771119 C271.469428,72.8771119 271.840334,72.8243922 272.273905,72.7208057 C273.47808,72.4329529 276.63671,70.878649 284.415577,63.8066337 C282.825254,59.7718104 281.367033,54.2229388 283.621262,48.7739482 C289.001942,35.7727385 296.409903,34.3691826 299.346667,34.3691826 C301.751629,34.3691826 303.999083,35.2342568 305.611424,36.7125972 C305.652071,36.5502273 305.685944,36.4368716 305.701187,36.385331 L305.845146,35.9280342 L306.195728,35.5999258 C306.834229,35.0021555 308.314466,33.6171272 321.623053,32.1069529 C325.432039,27.2190141 329.171586,23.3667727 332.745156,20.6496042 C336.20356,18.0200212 339.38082,16.5920424 341.934822,16.5199529 C342.348069,16.5081625 342.749461,16.5022674 343.127141,16.5022674 C347.169849,16.5022674 349.087044,17.1392827 349.537551,18.6327821 L349.915232,19.8795265 L348.849935,20.6368033 C348.778803,20.6873333 342.773172,24.9721119 336.217109,30.8625665 C336.345825,30.8554923 336.474542,30.8484181 336.601564,30.8418492 C336.923355,30.8248375 337.243452,30.8164158 337.555081,30.8164158 C345.821715,30.8164158 347.904887,36.6176007 347.989569,36.8645241 L348.768641,39.1387126 C351.266753,39.5680495 352.619968,40.9892909 353.332988,42.1947691 C354.672654,44.456662 354.825081,47.7241025 353.832611,51.741914 C356.369676,47.6097362 358.009115,45.1974323 358.158155,44.981669 C360.38698,41.6010412 363.499881,40.8910942 365.721931,40.8910942 C367.615415,40.8910942 369.027907,41.4103746 369.183722,41.4694947 L371.488759,42.3509069 L370.968813,43.013861 C372.604865,42.5639753 374.439072,42.2195289 376.351187,42.1497974 C376.540874,42.1428916 376.723786,42.139523 376.903312,42.139523 C379.811284,42.139523 381.821629,43.0345783 382.883538,44.8000978 C384.16562,46.9375183 383.755761,50.0777915 381.6963,53.8810188 C380.873193,55.404331 379.497961,57.2188645 377.905944,59.3199034 C374.667713,63.5955866 370.638554,68.9169046 369.198964,74.428384 L369.175254,74.5168115 L369.144768,74.6025442 C368.284401,76.9105878 368.18617,78.012311 368.208188,78.4724711 C369.9611,78.2262214 373.922513,75.4285418 375.755027,73.8991661 L378.100712,76.0635359 C378.207411,76.0566302 378.312416,76.0530931 378.417422,76.0530931 C379.66055,76.0530931 380.795286,76.5565406 381.616699,77.4704605 C381.99438,77.8920495 382.29246,78.3877491 382.497389,78.9228622 C381.731866,74.9658551 382.304315,70.1109293 384.223204,65.2381496 C386.897454,58.4491025 390.982503,53.7592415 393.93959,51.020682 C397.633409,47.6006408 401.610065,45.3079246 404.851683,44.7308716 C405.623981,44.5934299 406.377648,44.52353 407.094056,44.52353 C411.858252,44.52353 414.51726,47.564596 415.037206,50.5783757 C415.501262,53.2648893 414.297087,55.6805618 412.105523,56.4526608 C411.5263,56.657139 410.962319,56.7607256 410.430518,56.7607256 C409.395707,56.7607256 408.477756,56.3763604 407.773204,55.6488963 C407.072039,54.9258115 406.70452,53.976689 406.513139,53.121384 C403.606861,53.9899953 398.862988,57.645338 395.175944,65.5815854 C391.590518,73.295669 392.552503,75.4649234 392.781143,75.8214971 C392.860744,75.9454641 393.072449,76.274583 394.054757,76.274583 C394.910043,76.2744146 396.03123,76.0221013 397.384444,75.5243804 C400.146764,74.5078846 403.759288,71.1649859 407.837562,65.8539423 C411.069018,59.4986113 415.157454,54.8540589 415.331899,54.6578339 L416.173635,53.7088799 L418.063732,54.4321331 C420.600798,49.8168881 424.560518,46.7631896 429.36028,45.7626949 C430.093625,45.6100942 430.808339,45.5327833 431.485793,45.5327833 C434.073668,45.5327833 436.25507,46.6777939 437.631996,48.7571048 C440.167368,52.585934 439.859126,59.0825807 436.807195,66.1357314 C436.063689,67.8583004 435.46753,69.2874582 434.944196,70.5486879 C434.937422,70.5630047 434.932341,70.57749 434.925566,70.5918068 C438.124844,69.9419906 441.510421,68.934927 444.58945,68.0191543 C447.167163,67.2526137 449.600917,66.5286867 451.514725,66.1465112 C453.372643,65.7752839 455.274595,65.5871437 457.166386,65.5871437 C462.420043,65.5871437 466.772686,67.0060271 469.106516,69.4799776 C470.452956,70.9074511 471.101618,72.6618539 470.979676,74.5536985 C470.556268,81.1677432 464.117066,85.4403946 463.842697,85.618934 L461.998328,86.8222226 L461.15151,84.7963051 C461.014326,84.4761131 457.621974,76.7989164 448.264639,76.7989164 C445.580227,76.7989164 442.616365,77.4345842 439.459428,78.6882344 C435.564067,80.2346219 432.053161,81.0745995 429.009698,81.1891343 C427.996904,82.4424476 426.714822,83.921967 424.875534,85.9610224 C422.074261,89.0659246 418.510852,90.7756926 414.839051,90.7756926 C409.890248,90.7756926 405.989806,87.7189623 404.582395,83.1229187 C402.692298,84.6608846 400.539687,85.8188645 397.834951,86.7892097 C395.899126,87.4836608 394.066613,87.8355183 392.389914,87.8355183 C389.007724,87.8355183 386.25726,86.4329729 384.438296,83.7794723 C383.725275,82.7420907 383.181618,81.5401496 382.803937,80.2135677 C382.839504,80.5586879 382.83781,80.9086926 382.797163,81.2558339 C382.394078,84.7794617 379.762168,87.2318528 376.247875,87.3586832 C376.180129,87.3612097 376.114078,87.3623887 376.046332,87.3623887 C374.068166,87.3623887 372.410097,86.2906466 371.722481,84.5653828 C371.593765,84.2431696 371.504002,83.911861 371.453193,83.5746572 C369.231143,85.3012686 366.673754,86.7439011 364.077411,87.0716726 C363.935146,87.0898634 363.791187,87.0989588 363.650615,87.0989588 C363.296645,87.0989588 362.956224,87.0430389 362.634434,86.9322097 C361.279525,86.821212 360.060108,86.1902603 359.169256,85.1294664 C357.561996,83.2172415 357.075922,80.1397939 357.758457,76.2299482 C358.625599,71.2736254 363.049374,64.4461755 366.95151,58.42249 C368.589256,55.8936302 370.137238,53.5052438 371.012848,51.8321943 C371.038252,51.7848645 371.06027,51.740735 371.0789,51.6998057 C368.397875,51.7109223 361.636882,55.2148433 357.341823,63.6371896 C351.71726,74.6636855 348.329989,83.5062733 348.296117,83.594364 L347.90658,84.6187762 L336.608339,86.0223322 L337.614358,83.2359376 C337.678716,83.0565559 338.588198,80.5556561 340.517249,76.3246078 C340.471521,76.3820436 340.424099,76.4391425 340.378371,76.4964099 C335.908867,81.9713392 331.703571,84.7474594 327.881036,84.7474594 C326.847918,84.7474594 325.838511,84.546013 324.883301,84.1486784 C322.493581,83.1540789 319.859978,80.9715183 319.240108,76.1991249 C315.204175,80.1450153 310.438285,83.8249494 306.507357,84.077768 C306.370173,84.0866949 306.232988,84.0910742 306.099191,84.0910742 C304.295469,84.0910742 302.78644,83.2706349 301.851553,81.780841 C300.486483,79.6080495 300.334056,76.0554511 301.397659,71.2217479 C302.127616,67.9012509 303.430022,64.0390718 305.218501,59.8639435 C302.774585,61.2712049 299.985167,63.0251025 297.393905,64.9998163 C300.268004,71.0688104 302.12931,77.6835289 297.038242,82.4480059 C295.242988,84.1291402 292.633096,85.0934217 289.879245,85.0934217 C286.624078,85.0934217 283.743204,83.7378693 282.35781,81.5559823 C281.129924,79.6198398 281.116375,77.1686278 282.32055,74.6544217 C283.011553,73.2127998 283.956602,71.7324382 285.14384,70.2298433 C284.637443,70.6590118 284.242826,70.9798775 283.951521,71.2011991 C278.818112,76.4120247 275.183571,79.587669 272.846354,80.9083557 C270.734391,82.1012014 267.61302,83.5229482 264.740615,83.5229482 C262.166289,83.5229482 260.802913,82.3796219 260.110216,81.4205618 C258.763776,79.5521296 258.728209,76.7081307 260.001823,72.9673922 C262.030798,67.0181543 264.205426,63.2843216 266.507077,59.3311885 C268.422578,56.0448834 270.400744,52.6465701 272.3552,47.7355559 C273.308716,45.3421166 273.337508,44.1944111 273.288393,43.7598528 C271.70315,44.0200824 267.635038,47.1731567 264.288414,53.1983581 C259.554703,61.7185642 251.381219,80.9880247 251.298231,81.1817232 L250.857886,82.2229788 L240.277745,82.8591519 L241.107627,80.4170353 C240.91794,80.509 240.733333,80.5900165 240.553808,80.6602532 C239.581661,81.0407444 238.648468,81.2336007 237.78302,81.2336007 C236.179148,81.2336007 234.802222,80.5608775 233.904595,79.3392297 C232.329515,77.1970931 232.312578,73.6746443 233.852093,68.8697432 C236.143581,61.7244594 239.231079,56.1235418 242.808037,49.6383486 C243.539687,48.3100824 244.296742,46.9366761 245.072427,45.5066761 C245.326472,45.0362415 245.521241,44.6399176 245.67028,44.308609 C243.753085,45.4110059 240.335329,48.0279564 236.275685,52.4107633 C228.444315,60.8646066 222.740151,80.0293015 222.682567,80.2216525 L222.331985,81.4119717 L216.805653,81.9031237 C247.286009,91.5439176 294.640054,105.436814 337.875178,107.86613 C343.77411,108.197775 349.623927,108.365703 355.262039,108.365703 C407.366731,108.365029 433.160798,94.4588269 441.63575,89.8890589 C443.757875,88.7448905 444.474283,88.3593463 445.270291,88.3593463 C446.188242,88.3593463 446.977476,88.9672226 447.18918,89.8378551 C448.632157,95.7582909 446.814887,102.535042 441.935523,109.435761 C438.107907,114.847022 433.707843,118.543126 432.517217,119.17273 C432.386807,119.242293 418.959666,126.139306 385.149622,126.139306 C385.147929,126.139306 385.149622,126.139306 385.147929,126.139306 C368.638371,126.139138 350.055804,124.482932 329.913398,121.216839 C280.532071,113.209849 242.92151,100.121391 215.459213,90.5648139 C208.879439,88.2751296 203.197292,86.2975524 198.107918,84.6573475 C197.731931,84.5428127 189.643128,82.083179 186.343927,81.3343239 C184.513107,80.9186302 182.746645,80.7889364 181.063172,80.7412697 C179.982632,83.9807503 179.032503,86.8089164 178.161974,89.359841 C180.871791,88.0049623 183.071823,86.7646184 184.696019,85.8488457 C185.99165,85.1173392 186.929924,84.5887951 187.6548,84.2547915 C187.951187,84.1183604 188.259428,84.0493027 188.571057,84.0493027 C189.341661,84.0493027 190.024196,84.4638174 190.39849,85.1579317 C190.679633,85.6819282 191.265631,86.7727032 189.50425,93.1447091 C188.764132,95.8254959 187.570119,99.4439517 186.647087,100.818874 C184.651985,103.789366 176.742708,106.269549 171.607605,107.609437 C168.725038,115.04409 166.26825,120.340311 164.107172,123.780733 C161.676466,127.650323 158.938874,128.462677 157.070455,128.462677 C155.383425,128.462677 153.723832,127.827683 152.137573,126.575044 L151.998864,126.465393 C148.55655,123.70039 145.875695,118.25342 144.810567,111.987528 C141.255796,112.296603 137.630739,112.518935 134.010085,112.64964 C133.054028,112.684168 132.067824,112.701517 131.078741,112.701517 C111.44595,112.701517 89.0601553,105.851329 72.7145415,100.849529 C65.7076332,98.7055395 59.656274,96.8536137 55.3083732,95.9797809 C51.41352,95.1970707 46.9218296,94.386232 42.6506505,94.1644052 C37.6825405,106.50485 29.120028,126.97541 24.0680831,134.547673 C20.4316785,139.998347 16.1100291,143 11.8991435,143 Z" id="Fill-1" fill="#0A0B09" mask="url(#mask-2)"></path>
            </g>
            <path d="M339.004833,63.2444028 C329.691532,77.2760883 325.423571,75.5816478 325.582772,70.3718327 C325.741974,65.1620177 329.01069,59.8528269 329.01069,59.8528269 L332.890809,59.9698881 C332.890809,59.9698881 333.554714,57.2859011 339.811003,49.5559847 C346.067292,41.8260683 350.728177,45.5824711 339.004833,63.2444028 Z M346.702406,40.1068681 C340.105696,39.9079482 336.830205,45.4103322 336.830205,45.4103322 L333.549633,44.7318822 C333.549633,44.7318822 326.353376,51.4678728 322.74932,61.4022462 C319.145264,71.3366196 318.918317,79.2787621 324.847735,81.7447962 C332.567325,84.9556431 342.019504,70.6187562 347.759234,59.5494782 C353.58534,48.3129458 353.299115,40.305788 346.702406,40.1068681 Z" id="Fill-4" fill="#FFFFFE"></path>
            <path d="M374.064779,78.9797927 C371.238101,81.6257138 372.523571,84.9204405 375.440011,84.8151696 C378.356451,84.7097303 379.973873,82.6344617 380.23808,80.3249022 C380.502287,78.0150059 378.063452,75.2375383 374.064779,78.9797927" id="Fill-5" fill="#FFFFFE"></path>
            <g id="Group-9" transform="translate(1.016181, 2.863369)" fill="#FFFFFE">
                <path d="M37.6588296,72.156722 L39.6258177,66.7424287 C24.6078447,60.3032179 19.0815124,40.4400294 28.6629159,20.3418763 C33.0646742,11.1083545 67.7289871,3.6772391 67.7289871,3.6772391 C67.7289871,3.6772391 63.3106311,9.15924264 48.8756073,46.376298 C46.1874693,53.3069976 43.9574595,60.5119069 41.3595922,67.413636 C41.3070895,67.3956137 41.2557724,67.3754016 41.2034391,67.356874 L39.2770982,72.6593274 C39.3026721,72.6667385 39.3280766,72.6744865 39.3538198,72.6818975 C38.9107648,73.8324664 38.4675405,74.9725925 38.0244854,76.1078339 L37.829548,76.6437892 L37.8166764,76.639073 C37.2379612,78.1185925 36.6600928,79.5831213 36.0840874,81.0309753 C37.1802082,81.0225536 38.4121586,81.0331649 39.7699461,81.0740942 C40.7292211,81.1028963 41.6964563,81.1483734 42.6440453,81.2034511 C43.5929892,78.7815465 44.5363441,76.3542521 45.4634401,73.9389164 C45.4810539,73.941106 45.498329,73.9424535 45.5159428,73.9448115 L47.5686289,68.7511661 C47.5266268,68.747629 47.4851327,68.7454393 47.4431305,68.7415654 C49.4790496,63.3574217 51.4160604,58.1118987 53.1740539,53.2298551 C63.0225437,25.8838422 75.8277821,0.121103651 75.8277821,0.121103651 C75.8277821,0.121103651 24.6119094,6.68983981 18.2367271,20.4378834 C5.26889968,48.4033946 20.600534,66.4508704 37.6588296,72.156722" id="Fill-6"></path>
                <path d="M142.970602,104.822032 C142.787859,102.663726 143.007523,99.8849105 143.277489,97.6199859 C135.15583,98.6260389 125.949228,98.8407915 115.673603,97.6999918 C84.5254466,94.2402002 60.5296818,84.7021508 42.7863107,82.8990707 C41.7775814,82.8384346 40.7432783,82.7887468 39.7184595,82.7575866 C37.2674304,82.6838127 35.2176235,82.712278 33.6715038,82.7693769 C31.3308997,82.9947409 29.1290043,83.4533852 27.063616,84.1949976 C8.83451025,90.7430165 -2.66307228,110.179058 0.623257821,125.59375 C3.90958792,141.008611 13.7010022,140.572874 20.7858177,129.952976 C24.9235383,123.751088 31.9160507,107.951694 38.9793571,90.4332674 C38.8052513,90.4133922 38.6277584,90.3967173 38.4448457,90.3856007 C35.97163,90.2394005 33.4487907,90.7169093 32.0203786,91.0583239 C23.9376731,110.639892 17.0027443,125.382872 15.6004142,127.555326 C13.2349137,131.219596 6.92375081,116.460783 16.021452,101.419339 C20.0384164,94.7778398 24.9115135,91.2948045 30.418877,89.7399953 C31.0509417,89.5493286 34.7864239,88.4823027 38.545109,88.704298 C38.9217735,88.7263628 39.2821791,88.7669552 39.6275113,88.8213592 C39.642754,88.783967 39.6578274,88.7464064 39.6729008,88.7086773 C44.1693333,88.8144535 48.9450464,89.6094594 53.9128177,90.6077644 C69.2193862,93.6843698 103.983454,108.260432 132.185871,107.242926 C135.990114,107.105653 139.651754,106.872204 143.14928,106.563802 C143.082213,106.001908 143.021242,105.419634 142.970602,104.822032" id="Fill-8"></path>
            </g>
            <path d="M48.2897789,76.9646549 C49.4917519,77.0364075 50.6281812,77.0289965 51.6770496,76.9366949 C52.9652287,76.8238445 54.1734682,76.6800024 55.3104056,76.5105583 C55.3901758,74.6774971 55.6769083,72.7290589 55.9533096,71.2023781 C54.1467087,71.5501932 52.2796451,71.7359753 50.3685469,71.7051519 L48.2897789,76.9646549" id="Fill-10" fill="#FFFFFE"></path>
            <path d="M187.681899,85.1801649 C184.401327,86.6893286 174.021036,93.9023227 156.854855,98.1620047 C156.525274,99.8606561 156.191797,102.060565 156.124899,104.251548 C156.084251,105.584025 156.144206,106.85216 156.248703,107.980833 C172.078436,105.557244 182.619622,101.709718 184.384391,99.0828304 C185.890032,96.8421602 189.42973,84.3753899 187.681899,85.1801649" id="Fill-11" fill="#FFFFFE"></path>
            <g id="Group-15" transform="translate(189.687163, 1.010601)" fill="#FFFFFE">
                <path d="M26.258123,47.9356549 C22.1171845,58.6791826 15.2291694,70.1673545 11.8080259,71.7642721 C8.35809061,73.3746643 5.5906904,67.2800683 7.62135922,59.0005536 C8.40381877,55.8127821 9.58597627,53.0893816 10.7444229,50.942192 L12.9241316,51.83051 C12.9241316,51.83051 17.000712,43.1070047 21.4414239,39.1968221 C25.8804423,35.2866396 30.3973679,37.1919588 26.258123,47.9356549 Z M27.3047896,30.2745654 C23.2756311,30.8654299 20.6166235,31.9907338 16.4536677,37.176126 L13.3610895,35.8695878 C13.3610895,35.8695878 1.94259978,53.5214134 0.342114347,64.3417468 C-0.0457281553,66.9736879 0.187993528,69.8638375 0.977227616,72.3987609 C2.50149946,73.0191013 5.50092772,74.2404122 9.12361381,75.7170683 C10.6529666,76.3404405 12.1399784,76.9313051 13.479644,77.4561437 C16.1234088,75.640768 19.1025135,72.4054982 22.3644552,67.2802367 C37.0448867,44.2169812 34.451931,29.2262356 27.3047896,30.2745654 Z" id="Fill-12"></path>
                <path d="M59.9326753,34.1131637 C51.6203128,36.2925241 43.1233441,44.5407102 43.1233441,44.5407102 C43.1233441,44.5407102 44.7085868,41.2006749 46.9306365,36.6015995 C46.9678964,36.5780188 47.0034628,36.5541013 47.0407228,36.5303522 L49.0392125,32.4438198 C48.9833225,32.4935077 48.9291262,32.5437008 48.8732362,32.5932203 C51.5830529,27.0266631 54.7366019,20.6474146 57.1229342,16.1083015 C62.3105394,6.2416384 68.5973139,0.356405183 64.945836,9.96587044 C62.4155448,16.6225289 58.1255663,23.2252886 52.6127832,28.9843651 L49.8555448,34.6263804 C54.2725458,31.4559576 58.5286516,27.4752014 61.5043689,22.6189282 C70.8261381,7.40955595 70.8261381,-2.61358186 63.3910787,0.806964664 C55.9577131,4.22767962 49.1238943,17.9934087 40.6269256,36.2647326 C40.0493959,37.5050766 39.4701726,38.7679906 38.8892557,40.043874 C34.1165912,43.0800554 29.2694067,45.10951 28.5021899,45.364013 C29.3083603,45.1063098 34.1911111,43.8246996 38.1694606,41.9808587 C30.3821251,59.1993051 22.8420604,78.6548846 22.8420604,78.6548846 L30.498986,77.974245 C30.498986,77.974245 36.2895254,58.3066078 44.5002697,49.4421237 C52.711014,40.5776396 60.7845739,36.2652379 56.2524056,44.6330118 C51.721931,53.0009541 47.8672168,59.2629729 45.1658684,67.6861614 C42.5559763,75.8316031 45.1286084,78.9228622 49.4558468,77.2309482 C50.1824164,76.9474747 51.0089105,76.4270153 51.88452,75.7583345 L53.617109,71.3967503 C52.7347249,71.5126325 52.0640453,71.1518481 51.8150809,70.0127326 C50.7413161,65.120583 55.2446926,57.663192 60.0817152,49.3043451 C64.9170442,40.9456667 68.2450378,31.9341402 59.9326753,34.1131637 Z M30.299137,44.478687 C30.299137,44.478687 30.3743889,44.4519848 30.5196426,44.390636 C30.376139,44.4486746 30.299137,44.478687 30.299137,44.478687 Z" id="Fill-14"></path>
            </g>
            <path d="M284.764466,64.5539729 C279.783484,69.0710212 274.738145,73.0992756 271.958889,73.763914 C265.191122,75.3822226 268.492017,67.2810789 274.91767,56.8442686 C281.345016,46.4072898 288.483689,34.375583 279.25507,34.8025618 C271.303452,35.1700836 268.112643,39.6298645 268.112643,39.6298645 L270.100971,34.526331 L262.408479,36.420702 C262.408479,36.420702 255.639018,48.0623168 250.063571,60.6506961 C244.488123,73.2394122 242.139051,80.1547845 242.139051,80.1547845 L248.871251,79.7500389 C248.871251,79.7500389 257.110787,60.2979965 261.946117,51.5933557 C268.085545,40.5404158 277.613937,36.8744617 273.313797,47.6792992 C269.015351,58.4841366 264.683031,62.0027114 260.9926,72.8257397 C257.850906,82.0446078 264.052999,82.6378304 271.20014,78.6008174 C274.301187,76.850457 279.927443,71.3479046 285.306429,65.6777609 C285.12521,65.2994594 284.942298,64.9201472 284.764466,64.5539729" id="Fill-16" fill="#FFFFFE"></path>
            <path d="M335.956289,31.9327927 C334.479439,32.010609 332.592729,32.1339022 330.489234,32.297788 C338.495049,24.5040353 347.04452,18.4309988 347.04452,18.4309988 C347.04452,18.4309988 346.749827,17.4567797 341.245512,17.6125807 C337.165545,17.728126 330.104779,22.3509505 321.858468,33.1028999 C314.8248,33.8768516 308.035016,34.9556678 306.707206,36.199212 C306.707206,36.199212 304.913646,41.937066 310.448447,40.8168151 C312.494358,40.4028057 314.89932,39.823563 317.49397,39.2205713 C315.973085,41.5046973 314.425102,43.9872379 312.85849,46.681331 C300.906505,67.2359388 298.84027,81.9750448 305.648684,81.5369494 C309.615178,81.2816042 314.924725,76.5877008 318.665965,72.7145736 C318.698145,71.4631131 318.806537,69.9958893 319.060583,68.4301319 C319.150345,67.8761543 319.257044,67.3241979 319.377292,66.7815053 C317.184035,69.3415253 314.442039,72.0115324 312.064175,72.7208057 C307.166181,74.1817974 311.849083,58.5563946 319.695696,45.2786172 C321.218274,42.7012485 323.238781,40.0721708 325.494703,37.5170353 C327.538921,37.1422709 329.598382,36.8274688 331.607033,36.628212 C339.070885,35.887947 345.516861,36.7259034 345.516861,36.7259034 C345.516861,36.7259034 343.733463,31.5238363 335.956289,31.9327927" id="Fill-17" fill="#FFFFFE"></path>
            <path d="M376.188598,74.5664994 C376.188598,74.5664994 361.684304,86.6891602 366.687303,73.2458127 C368.936451,64.6280836 376.972751,56.6743192 379.345534,52.2930283 C381.814854,47.7321873 382.373754,42.997523 375.675426,43.2422568 C369.779881,43.4573463 364.549935,46.5614064 364.549935,46.5614064 L367.784779,42.4420294 C367.784779,42.4420294 362.195782,40.3054511 358.935534,45.2675006 C358.935534,45.2675006 354.098511,52.3043133 347.725361,63.8933769 C341.350518,75.482609 338.593279,83.1249399 338.593279,83.1249399 L345.843732,82.2241578 C345.843732,82.2241578 349.227616,73.3428304 354.967346,62.0887809 C361.785922,48.7232497 374.779493,46.4327232 371.893538,51.9467291 C369.00589,57.460735 359.99575,69.0919069 358.818673,75.8161072 C357.865156,81.2691402 359.536775,84.3873486 362.304175,84.4052026 C362.531122,84.5288327 362.797023,84.5803734 363.105264,84.5412968 C369.568177,83.7250683 376.188598,74.5664994 376.188598,74.5664994" id="Fill-18" fill="#FFFFFE"></path>
            <path d="M405.769633,70.2455077 C405.889881,69.8938186 406.010129,69.5550989 406.12699,69.2222744 C403.264746,72.5550671 400.139989,75.4516172 397.276052,76.5046631 C389.028047,79.5393286 387.993236,74.3781908 392.772675,64.0929706 C397.553808,53.8077503 404.109871,50.0910978 407.402298,50.3834982 C407.402298,50.3834982 407.219385,55.2577939 410.752309,54.0123969 C414.286926,52.7671684 412.893064,44.2889022 404.431661,45.7958763 C399.030658,46.7574629 389.617433,53.9221166 385.183495,65.1759976 C380.588662,76.8448987 384.182557,88.7610601 396.471575,84.3523145 C399.792794,83.1606478 402.041942,81.7176784 403.913409,79.8906808 C403.901553,77.7638716 404.27754,74.5924382 405.769633,70.2455077" id="Fill-19" fill="#FFFFFE"></path>
            <path d="M451.811111,67.2248221 C447.87849,68.0098905 441.562923,70.3282085 435.667379,71.5768057 C433.84164,72.0593675 431.309655,72.5892591 428.830173,72.6441684 C428.579515,72.6497267 428.339018,72.6488846 428.110378,72.6418104 C425.837519,72.5734264 424.592697,71.9225995 423.911855,71.2744676 C422.675502,70.5567727 421.764326,69.4545442 421.301963,67.8500471 C418.492222,58.10853 427.017983,50.4126372 430.406947,50.5148763 C433.514768,50.6085253 433.489364,57.1068563 426.718209,69.5207385 C426.513279,69.896682 426.306656,70.2633616 426.098339,70.6234723 C426.696192,70.8353616 427.558252,70.9877939 428.792913,70.9601708 C430.078382,70.931874 431.394337,70.7610824 432.608673,70.5365607 C433.259029,68.9883204 434.017778,67.1269623 435.062751,64.7117951 C439.625405,54.1663451 437.464326,45.2141072 429.671909,46.8379741 C424.304779,47.9562038 420.634671,51.8006973 418.654811,56.5811755 L416.639385,55.1555548 C416.639385,55.1555548 406.96534,66.0692002 405.852621,77.0444923 C404.741597,88.019616 416.215976,92.0601661 423.449493,84.0410495 C424.7248,82.6267138 425.773161,81.4362261 426.655545,80.3899176 C426.323592,80.349662 425.981478,80.3033428 425.630895,80.2486019 C423.090442,79.854636 421.435761,79.0628304 420.363689,78.2654664 C415.819666,82.6915607 411.881963,82.743775 411.800669,76.6614747 C411.734617,71.5953333 414.612104,66.2356125 417.100054,62.5625842 C417.008598,63.3122815 416.94932,64.0670318 416.927303,64.8212768 C416.815523,68.4956525 417.567497,72.6714547 420.10795,75.4704817 L420.104563,75.4618916 C420.106257,75.4623969 420.106257,75.4661025 420.109644,75.4714923 C420.575394,75.9852144 421.102114,76.4524488 421.694887,76.861742 C421.642384,76.9198516 421.591575,76.9767821 421.540766,77.0340495 C422.409601,77.6356938 423.772977,78.2558657 425.891715,78.5846478 C426.616591,78.6969929 427.295739,78.7748092 427.930852,78.827192 C427.971499,78.7773357 428.010453,78.7268057 428.049407,78.6774547 C430.889633,78.7091201 434.400539,78.007258 438.715922,76.293616 C456.802255,69.1134664 462.775707,83.3925807 462.775707,83.3925807 C462.775707,83.3925807 468.720367,79.5159164 469.089579,73.7329223 C469.460485,67.9500966 460.211543,65.5467197 451.811111,67.2248221" id="Fill-20" fill="#FFFFFE"></path>
            <path d="M70.4721683,57.0137126 C80.8323053,37.5276466 85.3380529,44.7052697 83.3024725,49.8734817 C81.5092513,54.4267432 79.7583711,57.5326561 74.8807012,62.1588492 C72.4699806,64.1219411 69.2793409,66.3831602 65.5550367,68.2152108 C66.6017033,64.9732038 68.2350453,61.2216855 70.4721683,57.0137126 Z M92.4284574,68.403351 C87.5746677,73.6930035 82.0293668,78.5881849 76.7291348,80.6806337 C67.9720237,84.1373934 63.6793355,81.6688327 64.1848857,74.6126502 C64.3256268,74.5348339 67.2451154,73.9358846 72.436616,70.385139 C77.6282859,66.8345618 82.161301,61.330662 84.6216451,55.8902615 C89.4549417,45.2028221 86.7940712,33.9159282 73.784411,41.7418516 C60.7747508,49.5679435 54.0435663,77.5575406 58.7288393,84.0493027 C63.4137735,90.5408963 73.8064283,90.3050895 87.3732945,76.5188115 C89.5941586,74.2619717 91.6016246,72.0293863 93.4083948,69.8724276 L92.4284574,68.403351 Z" id="Fill-21" fill="#FFFFFE"></path>
            <path d="M114.530907,58.645159 C114.482808,58.4019411 114.43962,58.1676502 114.399142,57.9385807 C114.430813,57.9219058 114.463331,57.9043887 114.495002,57.8878822 C114.437419,57.687278 114.386271,57.491053 114.34122,57.3039234 C110.754778,58.8770919 106.292387,61.0908127 102.428697,63.7754735 C102.663604,64.1111614 102.892922,64.4332061 103.115466,64.7417762 C103.470113,64.4874417 103.832382,64.2356337 104.198038,63.9851731 C104.542184,63.890682 105.283489,63.5368033 106.617227,62.7854217 C108.580827,61.6793192 111.43816,60.2051896 114.530907,58.645159" id="Fill-22" fill="#FFFFFE"></path>
            <path d="M99.6687487,62.7222591 C98.330438,60.6929729 97.6910906,59.0455253 97.3965674,57.8200035 C95.6075804,52.4356914 97.397753,49.6546867 100.46662,45.785265 C103.990906,41.3418221 107.879324,41.6276537 107.581752,45.8314158 C107.352434,49.0702226 102.173297,56.3588433 99.807288,59.5349929 C100.037622,60.0303557 100.323169,60.5701849 100.676292,61.1521225 C105.224381,55.0935713 110.046161,47.3468115 110.490401,44.9078952 C111.100957,41.5560695 107.633238,38.5869246 104.242242,38.653119 C100.851414,38.7194817 90.9170572,45.6710671 89.2959094,54.3848033 C88.5026106,58.649033 91.2357994,63.5426985 94.2345502,68.0609258 C94.2291305,68.0804641 94.2252352,68.0978127 94.2216785,68.1151614 L94.3331197,68.2788787 C94.3451446,68.2753416 94.357,68.2719729 94.3708878,68.2659093 C94.7272287,68.7998433 95.0862794,69.3280506 95.4432977,69.849689 C95.4353376,69.8579423 95.4277163,69.8660271 95.4197562,69.8742803 L96.2101758,71.0351237 C96.2189827,71.0250177 96.2274509,71.0150801 96.2360885,71.0046372 C98.6637454,74.5375289 100.782145,77.6665171 100.784177,79.8339187 C100.789258,85.2264841 96.3724261,91.1597208 91.375863,88.3128587 C87.23611,85.954285 90.1081769,78.7175418 95.0922071,72.3965713 L94.2389536,71.1439317 C88.7261704,77.2663192 85.1937551,84.105391 87.9799547,88.5474865 C91.5348954,94.215609 101.628285,92.7039187 106.342858,82.5667515 C108.67584,77.5501296 107.579381,73.8252238 105.472668,70.4732297 C105.036387,69.9822462 102.64328,67.2335807 99.6687487,62.7222591" id="Fill-23" fill="#FFFFFE"></path>
            <path d="M156.484796,74.8541837 C143.568963,86.6795595 141.098457,78.1903451 140.768029,71.1230459 C140.718744,70.07 140.830694,68.7373545 141.082029,67.2285277 C145.704468,65.8448469 151.140868,63.4669034 156.410784,59.3798657 C159.2566,57.1725453 161.410735,54.3256832 162.816621,51.3585595 C161.873605,50.3592438 160.779686,49.0419258 159.728277,47.4061001 C158.750203,49.3670024 157.017783,51.7397244 154.931563,54.1777986 C151.414391,58.2885854 145.708702,61.5991449 141.892095,63.5170966 C144.141243,54.9989117 149.475347,44.0141873 155.551603,42.7959081 C156.205854,42.6648669 156.788296,42.5840188 157.304177,42.5488163 C156.522056,40.3485701 156.138956,38.1921166 155.957229,36.4488304 C152.096417,37.0957833 147.757493,39.4132591 144.891862,43.2889128 C141.169082,48.3237256 135.676961,57.8312886 134.131519,66.9758775 L134.108994,66.9854782 C133.983665,67.8419623 133.80651,69.3341143 133.748927,71.2227585 C133.74537,71.3391461 133.733345,71.4523333 133.717425,71.5641731 C133.700827,74.7627244 134.317819,77.8088433 135.843107,80.4749764 C142.321431,91.7994311 150.552838,84.7469541 157.966896,77.1767126 C163.420741,71.6086396 168.969937,61.436775 171.739709,55.9832367 C169.453301,60.1238363 164.775141,67.2635618 156.484796,74.8541837" id="Fill-24" fill="#FFFFFE"></path>
            <path d="M171.739709,55.9832367 C173.01671,53.6730035 173.548511,52.2960601 173.548511,52.2960601 C173.548511,52.2960601 172.879525,53.7418928 171.739709,55.9832367" id="Fill-25" fill="#FFFFFE"></path>
            <path d="M137.080985,38.8473227 C133.430354,34.4550836 127.586973,37.2069494 121.625376,42.4085112 C118.399509,45.2230342 116.293643,48.3417479 115.746091,52.3315995 L115.792835,52.343053 C115.787246,52.367139 115.24054,54.8055501 116.664549,60.3990565 C116.906739,61.3503687 117.116072,62.184788 117.29763,62.9181472 C117.448364,63.3365359 117.60638,63.7599776 117.778453,64.1933569 C118.925891,67.0811484 120.389869,69.5207385 121.655184,71.7076784 C121.646208,71.7115524 121.637571,71.7159317 121.628425,71.7199741 C121.872309,72.1604276 122.129064,72.6332203 122.393779,73.1338045 C122.412409,73.1243722 122.431039,73.1146031 122.449669,73.1053392 C124.222228,76.3092803 125.261781,79.0190377 123.701265,81.942874 C118.504345,91.682033 111.33688,85.6596949 113.831605,80.5740153 C115.18482,77.8155807 117.844844,75.6731072 120.903718,73.9355477 C120.622744,73.404477 120.350408,72.9040612 120.092806,72.4408693 C117.447009,73.7342697 115.291858,75.0985807 114.071255,76.618861 C110.039894,81.6401991 109.969947,87.1001378 115.077443,89.1828174 C120.185109,91.2651602 127.671824,87.1366879 130.666172,80.7983687 C132.111859,77.7377644 131.777027,75.13951 130.64263,72.1243828 C129.866945,70.390192 129.204734,68.8672167 128.699014,67.6878457 C127.674534,65.48002 126.514394,62.9617715 125.449775,59.9247479 C125.051601,58.7886643 124.734891,57.7250071 124.490669,56.7270389 C123.617939,54.5357197 123.615737,52.392404 123.860806,50.7299658 C124.13111,46.6287797 126.068798,44.1130577 128.150784,42.0064605 C131.813609,38.3005878 136.285992,39.0384947 136.13509,41.6044099 C135.897134,45.6537185 131.420347,48.5580165 125.444863,51.9538033 C125.420644,52.3508009 125.415902,52.7673369 125.439782,53.1983581 C127.997849,51.9155689 130.078141,50.8507326 131.131752,50.2391508 C134.641134,48.2019482 140.263326,42.6759835 137.080985,38.8473227 Z M131.319745,69.4757668 C131.617995,69.3908763 131.933011,69.3032909 132.2526,69.2146949 C132.276141,68.6452214 132.312554,68.1124664 132.358791,67.6181143 C131.850869,67.7649882 131.307213,67.9319058 130.728328,68.1205512 C130.911749,68.5438245 131.109565,68.9972473 131.319745,69.4757668 Z" id="Fill-26" fill="#FFFFFE"></path>
            <path d="M295.154919,61.9833416 C295.303959,62.2563722 295.449612,62.5267079 295.591877,62.7906431 C299.067217,60.1477538 302.859266,57.9033781 305.818047,56.3034287 C305.975556,55.9369176 306.13137,55.583881 306.282104,55.2449929 C305.255761,55.706669 304.065135,56.302755 302.703452,57.0745171 C300.637217,58.246477 297.929094,59.938391 295.154919,61.9833416" id="Fill-27" fill="#FFFFFE"></path>
            <path d="M292.926095,61.4337432 C292.358727,60.4069729 291.921769,59.1477644 291.603366,58.0025854 C289.28986,51.5295194 291.110518,46.2786066 296.204973,42.2670271 C302.151327,37.5865984 304.414024,41.0281991 301.511133,46.1041095 C299.973312,48.7916337 296.240539,53.2856066 293.06836,56.920232 C293.16151,57.2896066 293.268209,57.6798669 293.388457,58.0755171 C298.381294,52.6411802 303.170895,46.7972132 304.800173,43.7900024 C308.839493,36.3292426 293.351197,27.5211837 284.571392,48.7405984 C282.415394,53.9537821 285.137066,61.8430365 286.202362,64.3759388 C287.267659,66.908841 288.01794,68.1421107 288.01794,68.1421107 C288.01794,68.1421107 287.990841,68.1739446 287.94342,68.2290224 C288.185609,68.6553274 288.422718,69.094265 288.607325,69.4398905 C288.622567,69.4218681 288.636117,69.4041826 288.651359,69.3863286 C291.169795,74.3310294 292.997228,78.0587986 289.488015,79.2194735 C283.091154,81.3356714 283.397702,76.3301661 287.892611,70.3553263 L287.194833,69.1262674 C286.039773,70.532013 283.992168,73.1215088 283.230032,74.7113522 C279.642913,82.1963663 290.328058,84.8112956 295.043139,80.3974971 C298.701392,76.974424 298.125556,72.2264535 295.661316,66.52296 C295.373398,65.9743722 294.096397,63.5506148 292.926095,61.4337432" id="Fill-28" fill="#FFFFFE"></path>
            <path d="M177.301607,56.6165465 L179.03589,51.9218009 C167.519677,48.308735 161.426316,39.082119 166.172391,22.3381496 C168.730965,13.3116325 201.256386,6.89313899 201.256386,6.89313899 C201.256386,6.89313899 195.614887,13.9048551 185.702039,38.8850518 C184.55206,41.7817703 183.346192,44.9636466 182.108145,48.3334947 L182.158954,48.3516855 L178.996936,56.9114735 C179.005405,56.912821 179.015566,56.9143369 179.024035,56.9156843 C177.386289,61.5585524 175.729914,66.3855183 174.104024,71.1966514 C175.760399,71.090033 177.852039,71.0354605 179.881014,71.2065889 C180.368781,71.2476867 180.832837,71.2897951 181.274876,71.3312297 C182.802535,66.7072261 184.36068,61.9816572 185.944229,57.2321708 C185.954391,57.2314971 185.964552,57.2304865 185.976408,57.2296443 L187.548101,52.5412992 C187.536246,52.5434888 187.524391,52.5460153 187.512535,52.5480365 C188.183215,50.5578269 188.857282,48.5679541 189.534736,46.5843133 C200.14028,15.557861 207.460173,3.30752768 207.460173,3.30752768 C207.460173,3.30752768 161.676297,10.3606784 158.928373,22.1198598 C153.59664,44.9365289 164.234702,54.0573687 177.301607,56.6165465" id="Fill-29" fill="#FFFFFE"></path>
            <path d="M190.772783,56.4188057 C191.27918,55.0223239 191.914293,53.3523062 192.705221,51.3942674 C192.913538,50.8783557 193.123549,50.3782768 193.33356,49.8911673 C192.263182,50.8439953 190.957389,51.5625324 189.499169,52.046947 L187.825858,57.0396514 C188.869137,56.8936196 189.854833,56.6854358 190.772783,56.4188057" id="Fill-30" fill="#FFFFFE"></path>
            <path d="M444.735102,89.5922792 C444.304919,87.8274335 414.742513,113.372051 337.094412,109.008614 C277.380216,105.653419 205.817346,79.4325418 186.162708,73.7842945 C185.678328,73.6448316 185.195642,73.5196855 184.714649,73.4059929 C183.561284,73.2584452 181.862567,73.064073 179.738749,72.8848598 C177.531942,72.6990777 175.201499,72.7986219 173.51972,72.9303369 C173.518026,72.9335371 173.516332,72.9367373 173.516332,72.940106 C159.592448,75.0674205 148.760294,86.9714547 146.284708,97.8606773 C142.174932,115.937966 154.33371,133.999927 161.813989,122.091177 C163.946446,118.696569 166.254362,113.621164 168.709626,107.382389 C168.637985,107.403611 168.566005,107.424834 168.495381,107.446057 C166.520941,108.0349 163.754895,108.55738 161.607704,108.916649 C160.380327,112.568455 159.454416,115.215555 158.935995,116.443266 C156.196031,122.933176 154.103206,108.208218 154.857382,100.141603 C155.412725,94.203987 158.331536,83.1340353 169.919051,79.4202462 C171.07411,78.8987762 173.429957,78.1007385 177.057724,78.0899588 C177.843571,78.0872638 178.634498,78.1201084 179.410183,78.1772073 C181.444239,78.2068516 183.661208,78.3020165 186.01028,78.8352768 C209.265588,84.1156655 257.715415,107.103126 329.530636,118.747773 C401.018986,130.339868 429.179061,117.846822 430.98109,116.892984 C432.903366,115.875814 447.886958,102.537569 444.735102,89.5922792" id="Fill-31" fill="#FFFFFE"></path>
            <path d="M177.062805,79.7742933 C173.980388,79.7833887 171.929396,80.4097927 170.872567,80.8465406 C169.424509,85.2069458 168.032341,89.4369835 166.738065,93.3766419 C168.044874,92.8972803 169.531208,92.3138269 171.052093,91.6411037 C172.593301,90.9599588 174.005793,90.1959446 175.198112,89.4851555 C176.266796,86.3647574 177.355804,83.1278033 178.463441,79.8076431 C177.995998,79.7852415 177.528554,79.7727774 177.062805,79.7742933" id="Fill-32" fill="#FFFFFE"></path>
        </g>
    </g>
</svg>